<svg xmlns="http://www.w3.org/2000/svg" viewBox="0 0 256 256" role="img" aria-label="Uniswap v4 mark">
  <defs>
    <linearGradient id="uGrad" x1="0" y1="0" x2="1" y2="1">
      <stop offset="0%" stop-color="#ff58a8"/>
      <stop offset="100%" stop-color="#ff1f7a"/>
    </linearGradient>
  </defs>
  <rect width="256" height="256" rx="48" fill="#111827"/>
  <path d="M64 170c34 0 48-30 68-30 18 0 26 18 48 18 10 0 18-3 24-7-8 20-28 33-54 33-22 0-34-12-46-12-15 0-23 20-40 20-8 0-15-2-20-6 4-10 10-16 20-16z" fill="url(#uGrad)"/>
  <path d="M112 60c16 8 28 24 28 43 0 10-3 20-8 28 24-4 42-24 42-49 0-8-2-15-5-22l18-10-6-10-18 10c-6-7-14-13-23-17l2-20-12-2-2 21c-8 0-16 1-24 4l-12-18-10 6 12 18c-7 7-13 15-16 25l-21-1-1 12 22 1c0 6 1 12 3 17l11-7c-1-4-2-8-2-12 0-23 18-41 40-41z" fill="#f9a8d4"/>
</svg>
